<svg width="88" height="25" viewBox="0 0 88 25" fill="none" xmlns="http://www.w3.org/2000/svg">
<path d="M9.28125 21.75C9.27083 21.8438 9.25 21.9375 9.21875 22.0312C9.19792 22.1146 9.13021 22.1823 9.01562 22.2344C8.97396 22.2552 8.76562 22.3333 8.39062 22.4688C8.02604 22.5938 7.59896 22.7448 7.10938 22.9219C6.63021 23.0885 6.15104 23.2552 5.67188 23.4219C5.20312 23.599 4.84375 23.7344 4.59375 23.8281C4.46875 23.8802 4.3125 23.9323 4.125 23.9844C3.94792 24.0469 3.77083 24.0781 3.59375 24.0781C3.44792 24.0781 3.31771 24.0417 3.20312 23.9688C3.09896 23.8958 3.04688 23.7604 3.04688 23.5625C3.04688 23.1042 3.05729 22.6875 3.07812 22.3125C3.10938 21.9271 3.14583 21.526 3.1875 21.1094C3.22917 20.6927 3.27083 20.2344 3.3125 19.7344C3.36458 19.224 3.41146 18.6198 3.45312 17.9219C3.50521 17.0052 3.5625 16.125 3.625 15.2812C3.6875 14.4271 3.75 13.5417 3.8125 12.625L4.03125 9.95312C4.0625 9.51562 4.09375 9.07292 4.125 8.625C4.15625 8.16667 4.1875 7.69792 4.21875 7.21875L4.39062 5.3125C4.39062 5.29167 4.35938 5.28125 4.29688 5.28125C4.21354 5.28125 4.07292 5.30208 3.875 5.34375C3.67708 5.375 3.44271 5.41667 3.17188 5.46875C2.90104 5.52083 2.59896 5.57812 2.26562 5.64062C1.94271 5.69271 1.60938 5.74479 1.26562 5.79688C1.18229 5.79688 1.09896 5.78125 1.01562 5.75C0.942708 5.70833 0.90625 5.66146 0.90625 5.60938C0.90625 5.56771 0.916667 5.53646 0.9375 5.51562L3.46875 1.09375C4.04167 0.96875 4.65625 0.84375 5.3125 0.71875C5.97917 0.583333 6.69271 0.463542 7.45312 0.359375C8.21354 0.255208 9.02083 0.171875 9.875 0.109375C10.7292 0.0364583 11.6354 0 12.5938 0C13.6771 0.0208333 14.7292 0.130208 15.75 0.328125C16.7812 0.515625 17.6927 0.838542 18.4844 1.29688C19.2865 1.74479 19.9271 2.35938 20.4062 3.14062C20.8958 3.91146 21.1406 4.89062 21.1406 6.07812C21.1406 6.73438 21.026 7.33854 20.7969 7.89062C20.5781 8.44271 20.2917 8.94271 19.9375 9.39062C19.5938 9.82812 19.2135 10.2188 18.7969 10.5625C18.3802 10.8958 17.9792 11.1823 17.5938 11.4219C17.2188 11.6615 16.8854 11.8542 16.5938 12C16.3021 12.1354 16.1042 12.224 16 12.2656C16 12.2865 16.0052 12.3125 16.0156 12.3438C16.0365 12.375 16.0729 12.4375 16.125 12.5312C16.1771 12.6146 16.25 12.7396 16.3438 12.9062C16.4479 13.0625 16.5781 13.2812 16.7344 13.5625C16.901 13.8125 17.099 14.1458 17.3281 14.5625C17.5573 14.9792 17.8281 15.474 18.1406 16.0469C18.4635 16.6094 18.8333 17.2396 19.25 17.9375C19.6667 18.6354 20.1458 19.3854 20.6875 20.1875C20.8646 20.3438 21.0677 20.4427 21.2969 20.4844C21.526 20.5156 21.7396 20.5365 21.9375 20.5469C22.1354 20.5469 22.3021 20.5573 22.4375 20.5781C22.5729 20.5885 22.6406 20.651 22.6406 20.7656C22.6406 20.849 22.5521 20.9479 22.375 21.0625C22.2083 21.1667 22.0104 21.276 21.7812 21.3906C21.5521 21.5052 21.3177 21.6146 21.0781 21.7188C20.849 21.8229 20.6719 21.9062 20.5469 21.9688C20.2969 22.0938 20.0365 22.2135 19.7656 22.3281C19.4948 22.4427 19.2031 22.5729 18.8906 22.7188C18.5781 22.8542 18.2292 23.0156 17.8438 23.2031C17.4688 23.3906 17.0417 23.6146 16.5625 23.875C16.4375 23.9479 16.3177 23.9948 16.2031 24.0156C16.099 24.0469 16 24.0625 15.9062 24.0625C15.7188 24.0625 15.5573 24.0156 15.4219 23.9219C15.2865 23.8385 15.1719 23.7344 15.0781 23.6094C14.9844 23.4844 14.9062 23.3542 14.8438 23.2188C14.7917 23.0938 14.7448 22.9896 14.7031 22.9062L10.0469 13.0938L9.28125 21.75ZM10.2344 11.1719C10.7656 11.1719 11.3177 11.0365 11.8906 10.7656C12.4635 10.4948 12.9844 10.1458 13.4531 9.71875C13.9219 9.29167 14.3073 8.80729 14.6094 8.26562C14.9115 7.72396 15.0625 7.17708 15.0625 6.625C15.0625 5.11458 14.1562 4.35938 12.3438 4.35938C12 4.35938 11.7135 4.38542 11.4844 4.4375C11.2552 4.47917 11.0469 4.51042 10.8594 4.53125L10.2344 11.1719ZM32.3125 5.5625C33.3021 5.5625 34.1979 5.75 35 6.125C35.8125 6.48958 36.5052 6.96875 37.0781 7.5625C37.6615 8.14583 38.1094 8.80208 38.4219 9.53125C38.7344 10.2604 38.8906 10.9896 38.8906 11.7188C38.8906 12.3646 38.6927 13.0156 38.2969 13.6719C37.901 14.3177 37.3438 14.901 36.625 15.4219C35.9167 15.9427 35.0625 16.3646 34.0625 16.6875C33.0625 17.0104 31.9635 17.1719 30.7656 17.1719C30.1406 17.1719 29.4844 17.1094 28.7969 16.9844C28.8385 17.4323 28.9688 17.8177 29.1875 18.1406C29.4062 18.4635 29.6823 18.7292 30.0156 18.9375C30.349 19.1458 30.724 19.3021 31.1406 19.4062C31.5677 19.5 32.0052 19.5469 32.4531 19.5469C32.9531 19.5469 33.4323 19.5052 33.8906 19.4219C34.3594 19.3281 34.8073 19.2083 35.2344 19.0625C35.6615 18.9167 36.0729 18.7552 36.4688 18.5781C36.8646 18.401 37.2396 18.224 37.5938 18.0469C37.6875 18.026 37.7656 18.0104 37.8281 18C37.901 17.9792 37.9688 17.9688 38.0312 17.9688C38.0312 17.9688 38.026 18.0521 38.0156 18.2188C38.0156 18.3854 38.0156 18.6198 38.0156 18.9219C38.0156 19.224 38.0104 19.5885 38 20.0156C38 20.4427 37.9948 20.9167 37.9844 21.4375C38.0156 21.4896 38.0365 21.5417 38.0469 21.5938C38.0573 21.6458 38.0625 21.6875 38.0625 21.7188C38.0625 21.8438 37.9479 21.9792 37.7188 22.125C37.4896 22.2708 37.1875 22.4219 36.8125 22.5781C36.4479 22.7344 36.026 22.8854 35.5469 23.0312C35.0781 23.1771 34.599 23.3073 34.1094 23.4219C33.6198 23.5469 33.1458 23.6406 32.6875 23.7031C32.2292 23.776 31.8281 23.8125 31.4844 23.8125C30.3594 23.8125 29.2656 23.6146 28.2031 23.2188C27.151 22.8333 26.2135 22.276 25.3906 21.5469C24.5781 20.8177 23.9271 19.9323 23.4375 18.8906C22.9479 17.849 22.7031 16.6771 22.7031 15.375C22.7031 14.0104 22.9375 12.7344 23.4062 11.5469C23.875 10.349 24.5312 9.30729 25.375 8.42188C26.2292 7.53646 27.2448 6.83854 28.4219 6.32812C29.599 5.81771 30.8958 5.5625 32.3125 5.5625ZM32.125 9.71875C31.6979 9.71875 31.3021 9.8125 30.9375 10C30.5833 10.1771 30.2552 10.4375 29.9531 10.7812C29.6615 11.1146 29.4062 11.5208 29.1875 12C28.9688 12.4688 28.7917 12.9896 28.6562 13.5625C29.7292 13.375 30.6198 13.1771 31.3281 12.9688C32.0365 12.7604 32.6042 12.5521 33.0312 12.3438C33.4583 12.125 33.7604 11.9115 33.9375 11.7031C34.1146 11.4844 34.2031 11.276 34.2031 11.0781C34.2031 10.8906 34.1302 10.7135 33.9844 10.5469C33.849 10.3802 33.6771 10.2344 33.4688 10.1094C33.2604 9.98438 33.0312 9.89062 32.7812 9.82812C32.5417 9.75521 32.3229 9.71875 32.125 9.71875ZM49.2656 10.9531C49.1198 12.0469 48.9792 13.1406 48.8438 14.2344C48.7188 15.3177 48.6406 16.3333 48.6094 17.2812C48.6094 17.6875 48.6406 18.026 48.7031 18.2969C48.7656 18.5677 48.8542 18.7812 48.9688 18.9375C49.0938 19.0938 49.2396 19.2083 49.4062 19.2812C49.5729 19.3438 49.7604 19.375 49.9688 19.375C50.3021 19.375 50.6667 19.3281 51.0625 19.2344C51.4583 19.1302 51.8542 19 52.25 18.8438C52.375 18.7917 52.4792 18.7552 52.5625 18.7344C52.6562 18.7031 52.7344 18.6875 52.7969 18.6875C52.901 18.6875 52.9688 18.7344 53 18.8281C53.0417 18.9219 53.0781 19.0885 53.1094 19.3281C53.151 19.5573 53.2083 19.8698 53.2812 20.2656C53.3542 20.6615 53.474 21.1615 53.6406 21.7656C53.651 21.8177 53.6562 21.8646 53.6562 21.9062C53.6667 21.9375 53.6719 21.9688 53.6719 22C53.6719 22.1458 53.6146 22.25 53.5 22.3125C53.3958 22.375 53.2188 22.4479 52.9688 22.5312C52.5417 22.6771 52.0885 22.8281 51.6094 22.9844C51.1406 23.1302 50.6719 23.2656 50.2031 23.3906C49.7448 23.5156 49.3021 23.6146 48.875 23.6875C48.4479 23.7708 48.0729 23.8125 47.75 23.8125C46.0104 23.8125 44.7396 23.3802 43.9375 22.5156C43.1458 21.651 42.75 20.3333 42.75 18.5625C42.75 18.2604 42.7604 17.9531 42.7812 17.6406C42.8021 17.3177 42.8281 16.9844 42.8594 16.6406C42.9635 15.599 43.0521 14.6146 43.125 13.6875C43.2083 12.75 43.2917 11.8542 43.375 11H41.7344C41.1719 11 40.7656 10.9792 40.5156 10.9375C40.2656 10.8854 40.1406 10.7865 40.1406 10.6406C40.1406 10.599 40.1927 10.4896 40.2969 10.3125C40.401 10.125 40.5312 9.90625 40.6875 9.65625C40.8542 9.39583 41.0312 9.11979 41.2188 8.82812C41.4062 8.53646 41.5833 8.26562 41.75 8.01562C41.9271 7.75521 42.0781 7.53125 42.2031 7.34375C42.3281 7.15625 42.4062 7.04167 42.4375 7H43.5469C43.6406 6.20833 43.7135 5.54688 43.7656 5.01562C43.8281 4.47396 43.875 4.02604 43.9062 3.67188C43.9479 3.31771 43.9844 3.04688 44.0156 2.85938C44.0469 2.66146 44.0781 2.51562 44.1094 2.42188C44.151 2.32812 44.1979 2.27083 44.25 2.25C44.3125 2.21875 44.3906 2.19271 44.4844 2.17188C44.9531 2.07812 45.4062 1.99479 45.8438 1.92188C46.2812 1.83854 46.7188 1.75521 47.1562 1.67188C47.5938 1.58854 48.0365 1.49479 48.4844 1.39062C48.9427 1.27604 49.4167 1.14583 49.9062 1C49.9375 1 49.9583 1 49.9688 1C49.9792 0.989583 50 0.984375 50.0312 0.984375C50.1562 0.984375 50.2188 1.02604 50.2188 1.10938V1.14062C50.1667 1.71354 50.0833 2.51042 49.9688 3.53125C49.8646 4.55208 49.7448 5.70833 49.6094 7H53.7969C53.8802 7 53.9583 7.03125 54.0312 7.09375C54.1146 7.14583 54.1562 7.23958 54.1562 7.375C54.1562 7.42708 54.0938 7.61458 53.9688 7.9375C53.8438 8.26042 53.6667 8.68229 53.4375 9.20312L52.875 10.4688C52.8021 10.625 52.724 10.7396 52.6406 10.8125C52.5677 10.8854 52.4115 10.9323 52.1719 10.9531H49.2656ZM68.2188 10.2812C68 10.2604 67.7552 10.2396 67.4844 10.2188C67.2135 10.1875 66.9271 10.1719 66.625 10.1719C66.1667 10.1719 65.6979 10.2135 65.2188 10.2969C64.75 10.3698 64.3125 10.5208 63.9062 10.75C63.5 10.9792 63.151 11.2969 62.8594 11.7031C62.5677 12.099 62.3802 12.6146 62.2969 13.25C62.224 14.0208 62.1615 14.6562 62.1094 15.1562C62.0677 15.6458 62.0365 16.0521 62.0156 16.375C61.9948 16.6875 61.974 16.9427 61.9531 17.1406C61.9427 17.3281 61.9323 17.5052 61.9219 17.6719C61.9219 17.7135 61.9115 17.8281 61.8906 18.0156C61.8802 18.2031 61.8594 18.4219 61.8281 18.6719C61.7969 18.9219 61.7656 19.1927 61.7344 19.4844C61.7135 19.776 61.6875 20.0469 61.6562 20.2969C61.625 20.5469 61.599 20.7656 61.5781 20.9531C61.5677 21.1406 61.5625 21.2552 61.5625 21.2969C61.5625 21.3802 61.5625 21.4531 61.5625 21.5156C61.5729 21.5677 61.5781 21.6198 61.5781 21.6719C61.5781 21.7552 61.5365 21.8281 61.4531 21.8906C61.3802 21.9427 61.2083 22.0052 60.9375 22.0781L56.7969 23.5625C56.6823 23.6042 56.5312 23.6562 56.3438 23.7188C56.1562 23.7812 55.974 23.8125 55.7969 23.8125C55.651 23.8125 55.5208 23.776 55.4062 23.7031C55.3021 23.6302 55.25 23.5052 55.25 23.3281L56.5938 7.84375C56.625 7.5 56.6615 7.26562 56.7031 7.14062C56.7552 7.00521 56.875 6.91667 57.0625 6.875C58.0104 6.6875 58.9896 6.5 60 6.3125C61.0104 6.11458 61.9896 5.86458 62.9375 5.5625C63.0208 5.5625 63.0677 5.57812 63.0781 5.60938C63.099 5.63021 63.1094 5.66667 63.1094 5.71875C63.1094 5.73958 63.1042 5.77083 63.0938 5.8125C63.0938 5.85417 63.0781 5.94792 63.0469 6.09375C63.026 6.23958 62.9896 6.46354 62.9375 6.76562C62.8958 7.05729 62.8333 7.46875 62.75 8C63.2292 7.625 63.7552 7.28125 64.3281 6.96875C64.9115 6.65625 65.4948 6.39062 66.0781 6.17188C66.6615 5.94271 67.224 5.76562 67.7656 5.64062C68.3073 5.50521 68.7812 5.4375 69.1875 5.4375L68.2188 10.2812ZM77.75 23.8125C76.2812 23.8125 74.9896 23.5729 73.875 23.0938C72.7708 22.6146 71.8438 21.9792 71.0938 21.1875C70.3438 20.3854 69.7812 19.4688 69.4062 18.4375C69.0312 17.3958 68.8438 16.3177 68.8438 15.2031C68.8438 14.0885 69.026 13.0312 69.3906 12.0312C69.7552 11.0208 70.2656 10.1198 70.9219 9.32812C71.5781 8.52604 72.3646 7.85938 73.2812 7.32812C74.1979 6.78646 75.2083 6.42188 76.3125 6.23438C76.4792 6.22396 76.5625 6.1875 76.5625 6.125C76.5625 6.01042 76.5469 5.90625 76.5156 5.8125C76.4948 5.70833 76.4844 5.61979 76.4844 5.54688C76.4844 5.43229 76.5052 5.35417 76.5469 5.3125C76.5885 5.27083 76.6354 5.25 76.6875 5.25C78.6771 5.25 80.3698 5.47917 81.7656 5.9375C83.1615 6.38542 84.2969 7 85.1719 7.78125C86.0469 8.5625 86.6823 9.48438 87.0781 10.5469C87.474 11.6094 87.6719 12.75 87.6719 13.9688C87.6719 15.5208 87.4115 16.9062 86.8906 18.125C86.3698 19.3438 85.6562 20.375 84.75 21.2188C83.8542 22.0625 82.8021 22.7031 81.5938 23.1406C80.3958 23.5885 79.1146 23.8125 77.75 23.8125ZM74.8594 15.0312C74.8594 15.5938 74.9167 16.151 75.0312 16.7031C75.1562 17.2552 75.3542 17.7552 75.625 18.2031C75.9062 18.651 76.2708 19.0156 76.7188 19.2969C77.1667 19.5677 77.724 19.7031 78.3906 19.7031C78.8698 19.6823 79.2865 19.5781 79.6406 19.3906C80.0052 19.1927 80.3177 18.9427 80.5781 18.6406C80.8385 18.3281 81.0521 17.9792 81.2188 17.5938C81.3958 17.2083 81.5312 16.8125 81.625 16.4062C81.7292 15.9896 81.8021 15.5833 81.8438 15.1875C81.8854 14.7917 81.9062 14.4323 81.9062 14.1094C81.9062 13.5677 81.8229 13.0365 81.6562 12.5156C81.5 11.9948 81.2656 11.5365 80.9531 11.1406C80.6406 10.7448 80.25 10.4271 79.7812 10.1875C79.3229 9.9375 78.7917 9.8125 78.1875 9.8125C77.5625 9.8125 77.0365 10 76.6094 10.375C76.1823 10.7396 75.8385 11.1927 75.5781 11.7344C75.3281 12.276 75.1458 12.849 75.0312 13.4531C74.9167 14.0469 74.8594 14.5729 74.8594 15.0312Z" fill="black"/>
</svg>
